<svg width="40" height="40" viewBox="0 0 40 40" fill="none" xmlns="http://www.w3.org/2000/svg">
<circle cx="20" cy="20" r="20" fill="#D6E4FF"/>
<path fill-rule="evenodd" clip-rule="evenodd" d="M20 6C16.134 6 13 9.13401 13 13C13 16.866 16.134 20 20 20C23.866 20 27 16.866 27 13C27 9.13401 23.866 6 20 6ZM15 13C15 10.2386 17.2386 8 20 8C22.7614 8 25 10.2386 25 13C25 15.7614 22.7614 18 20 18C17.2386 18 15 15.7614 15 13Z" fill="#0055FF"/>
<path d="M12.5858 22L7 27.5858V32H9V28.4142L13.4142 24H26.5858L31 28.4142V32H33V27.5858L27.4142 22H12.5858Z" fill="#0055FF"/>
</svg>
