<svg width="40" height="40" viewBox="0 0 40 40" fill="none" xmlns="http://www.w3.org/2000/svg">
<circle cx="20" cy="20" r="20" fill="#FFD8D0"/>
<path fill-rule="evenodd" clip-rule="evenodd" d="M26.1715 12.3096L22.082 16.4182L17.9753 12.3115L13.8687 16.4182L9.77915 12.3096L3.97821 18.1105L8.93102 23.0403L8.93493 23.0443L13.8648 27.9971L17.9753 23.8865L22.0859 27.9971L26.1689 23.8951L30.2773 28.0035L36.0679 22.2128L31.969 18.1139L31.9725 18.1105L26.1715 12.3096ZM17.9753 15.6884L22.0859 19.7989L26.1755 15.6903L28.5917 18.1066L25.3312 21.3519L25.3273 21.3558L22.082 24.6163L17.9753 20.5097L13.8687 24.6163L10.6234 21.3558L10.6194 21.3519L7.35898 18.1066L9.77522 15.6903L13.8648 19.7989L17.9753 15.6884ZM30.2773 24.6267L27.8635 22.2128L30.2773 19.799L32.6911 22.2128L30.2773 24.6267Z" fill="#B02D15"/>
</svg>
