<svg width="32" height="32" viewBox="0 0 32 32" fill="none" xmlns="http://www.w3.org/2000/svg">
<circle cx="16" cy="16" r="16" fill="#D6E4FF"/>
<path fill-rule="evenodd" clip-rule="evenodd" d="M20.9372 9.84766L17.6656 13.1345L14.3803 9.84923L11.095 13.1345L7.8233 9.84766L3.18256 14.4884L7.1448 18.4323L7.14794 18.4354L11.0918 22.3977L14.3803 19.1092L17.6687 22.3977L20.9351 19.1161L24.2218 22.4028L28.8543 17.7703L25.5752 14.4911L25.578 14.4884L20.9372 9.84766ZM14.3803 12.5507L17.6687 15.8391L20.9404 12.5523L22.8734 14.4853L20.265 17.0815L20.2619 17.0847L17.6656 19.693L14.3803 16.4077L11.095 19.693L8.49867 17.0847L8.49553 17.0815L5.88717 14.4853L7.82017 12.5523L11.0918 15.8391L14.3803 12.5507ZM24.2218 19.7013L22.2908 17.7703L24.2218 15.8392L26.1529 17.7703L24.2218 19.7013Z" fill="#0055FF"/>
</svg>
