<svg width="32" height="32" viewBox="0 0 32 32" fill="none" xmlns="http://www.w3.org/2000/svg">
<circle cx="16" cy="16" r="16" fill="#D6E4FF"/>
<path fill-rule="evenodd" clip-rule="evenodd" d="M21.0475 15.064L16.7155 6.3999H15.2844L10.9524 15.064L5.20695 11.6689L4.03534 12.5929L7.23534 22.9929L7.99996 23.5577H24L24.7646 22.9929L27.9646 12.5929L26.793 11.6689L21.0475 15.064ZM16 8.54653L12.3333 15.8799L16 18.0466L19.6667 15.8799L16 8.54653ZM20.384 17.3145L17.5725 18.9759L22.6187 21.9577H22.7055L20.384 17.3145ZM23.8225 20.614L21.7648 16.4986L25.8275 14.0979L23.8225 20.614ZM19.4736 21.9577L16 19.9051L12.5264 21.9577H19.4736ZM9.38126 21.9577L14.4274 18.9759L11.616 17.3145L9.29439 21.9577H9.38126ZM6.17243 14.0979L8.17738 20.614L10.2351 16.4986L6.17243 14.0979Z" fill="#0055FF"/>
</svg>
