<svg width="40" height="40" viewBox="0 0 40 40" fill="none" xmlns="http://www.w3.org/2000/svg">
<circle cx="20" cy="20" r="20" fill="#FFD8D0"/>
<path fill-rule="evenodd" clip-rule="evenodd" d="M21.4708 6L32 16.3065V23.3211L27.8855 27.3486L22.7537 22.3254L21.4707 23.5813L22.1123 24.2094L13.1317 33L8 27.9768L16.9806 19.1862L17.6218 19.8139L18.9049 18.558L13.7732 13.5348L21.4708 6ZM21.4708 8.5116L16.3391 13.5348L27.8855 24.837L30.1857 22.5855V17.0421L21.4708 8.5116ZM20.1878 19.8139L18.9048 21.0697L20.1878 22.3255L21.4707 21.0697L20.1878 19.8139ZM13.1317 30.4884L10.5659 27.9768L16.9806 21.6978L19.5464 24.2094L13.1317 30.4884Z" fill="#B02D15"/>
</svg>
