<svg width="32" height="32" viewBox="0 0 32 32" fill="none" xmlns="http://www.w3.org/2000/svg">
<circle cx="16" cy="16" r="16" fill="#D6E4FF"/>
<path fill-rule="evenodd" clip-rule="evenodd" d="M17.1767 4.7998L25.6 13.045V18.6567L22.3084 21.8787L18.203 17.8601L17.1765 18.8649L17.6899 19.3673L10.5054 26.3998L6.40002 22.3812L13.5845 15.3488L14.0975 15.851L15.124 14.8462L11.0186 10.8276L17.1767 4.7998ZM17.1767 6.80908L13.0713 10.8276L22.3084 19.8694L24.1485 18.0682V13.6335L17.1767 6.80908ZM16.1502 15.8509L15.1239 16.8555L16.1502 17.8602L17.1766 16.8555L16.1502 15.8509ZM10.5054 24.3905L8.45272 22.3812L13.5845 17.3581L15.6372 19.3673L10.5054 24.3905Z" fill="#0055FF"/>
</svg>
