<svg width="16" height="15" viewBox="0 0 16 15" fill="none" xmlns="http://www.w3.org/2000/svg">
<path d="M14.2772 4.34083C13.6355 3.24143 12.7652 2.37103 11.6658 1.72944C10.5664 1.08782 9.36609 0.76709 8.06413 0.76709C6.76233 0.76709 5.56165 1.08792 4.46241 1.72944C3.36301 2.371 2.49268 3.24143 1.85102 4.34083C1.20947 5.4402 0.888672 6.64072 0.888672 7.94235C0.888672 9.50591 1.34485 10.9119 2.25743 12.1607C3.16991 13.4096 4.3487 14.2738 5.7937 14.7533C5.9619 14.7845 6.08641 14.7626 6.16737 14.688C6.24837 14.6133 6.28881 14.5198 6.28881 14.4078C6.28881 14.3891 6.28721 14.221 6.2841 13.9033C6.28089 13.5856 6.27939 13.3084 6.27939 13.0719L6.06449 13.1091C5.92747 13.1342 5.75462 13.1448 5.54594 13.1418C5.33736 13.1389 5.12082 13.1171 4.89663 13.0764C4.67234 13.0361 4.46372 12.9427 4.27062 12.7963C4.07761 12.65 3.94059 12.4584 3.8596 12.2218L3.76617 12.0068C3.7039 11.8637 3.60586 11.7047 3.47192 11.5304C3.33798 11.3559 3.20253 11.2377 3.06552 11.1754L3.0001 11.1286C2.95651 11.0975 2.91606 11.0599 2.87866 11.0164C2.84129 10.9728 2.81331 10.9292 2.79462 10.8856C2.77591 10.8419 2.79142 10.806 2.84132 10.7779C2.89123 10.7498 2.98141 10.7362 3.11228 10.7362L3.29907 10.7641C3.42365 10.7891 3.57775 10.8636 3.76156 10.9883C3.94527 11.1128 4.09629 11.2748 4.21466 11.474C4.35799 11.7294 4.53067 11.9241 4.7332 12.058C4.93557 12.1919 5.13961 12.2588 5.34511 12.2588C5.55062 12.2588 5.72812 12.2432 5.87767 12.2122C6.02705 12.1811 6.16721 12.1343 6.29807 12.072C6.35413 11.6545 6.50676 11.3338 6.75582 11.1096C6.40083 11.0723 6.08167 11.0161 5.79818 10.9414C5.51485 10.8666 5.22207 10.7452 4.92003 10.5768C4.61782 10.4087 4.36712 10.2 4.16786 9.95096C3.96857 9.7018 3.80502 9.37469 3.67742 8.96992C3.54977 8.565 3.48592 8.09789 3.48592 7.56848C3.48592 6.81468 3.73201 6.17322 4.22408 5.64374C3.99357 5.07703 4.01533 4.44172 4.28943 3.73789C4.47007 3.68177 4.73795 3.72388 5.09294 3.86397C5.448 4.00413 5.70796 4.1242 5.87308 4.22374C6.03821 4.32326 6.17051 4.40759 6.27019 4.47598C6.84957 4.31409 7.44748 4.23313 8.06406 4.23313C8.68065 4.23313 9.27869 4.31409 9.8581 4.47598L10.2131 4.25185C10.4559 4.1023 10.7426 3.96526 11.0725 3.84067C11.4026 3.71616 11.6551 3.68186 11.8296 3.73799C12.1098 4.44185 12.1347 5.07712 11.9041 5.64384C12.3962 6.17332 12.6424 6.81494 12.6424 7.56858C12.6424 8.09799 12.5783 8.56657 12.4508 8.9746C12.3232 9.38271 12.1582 9.70949 11.9559 9.95564C11.7533 10.2018 11.501 10.4089 11.1989 10.5769C10.8968 10.7451 10.604 10.8666 10.3206 10.9414C10.0372 11.0162 9.71801 11.0724 9.36302 11.1098C9.68679 11.3899 9.84871 11.8322 9.84871 12.4364V14.4076C9.84871 14.5195 9.88765 14.613 9.9656 14.6878C10.0435 14.7623 10.1664 14.7843 10.3346 14.753C11.7798 14.2735 12.9586 13.4093 13.871 12.1604C14.7834 10.9116 15.2397 9.50565 15.2397 7.94209C15.2394 6.64062 14.9184 5.4402 14.2772 4.34083Z" fill="#FF3D19"/>
</svg>
