<svg width="16" height="15" viewBox="0 0 16 15" fill="none" xmlns="http://www.w3.org/2000/svg">
<path d="M14.2772 4.10792C13.6355 3.00852 12.7652 2.13812 11.6658 1.49653C10.5664 0.854909 9.36609 0.53418 8.06413 0.53418C6.76233 0.53418 5.56165 0.855007 4.46241 1.49653C3.36301 2.13809 2.49268 3.00852 1.85102 4.10792C1.20947 5.20729 0.888672 6.40781 0.888672 7.70944C0.888672 9.273 1.34485 10.679 2.25743 11.9278C3.16991 13.1767 4.3487 14.0408 5.7937 14.5204C5.9619 14.5516 6.08641 14.5297 6.16737 14.4551C6.24837 14.3804 6.28881 14.2869 6.28881 14.1749C6.28881 14.1562 6.28721 13.9881 6.2841 13.6704C6.28089 13.3527 6.27939 13.0755 6.27939 12.839L6.06449 12.8762C5.92747 12.9013 5.75462 12.9119 5.54594 12.9089C5.33736 12.906 5.12082 12.8841 4.89663 12.8435C4.67234 12.8032 4.46372 12.7098 4.27062 12.5634C4.07761 12.417 3.94059 12.2254 3.8596 11.9889L3.76617 11.7739C3.7039 11.6308 3.60586 11.4718 3.47192 11.2975C3.33798 11.123 3.20253 11.0048 3.06552 10.9425L3.0001 10.8957C2.95651 10.8645 2.91606 10.827 2.87866 10.7835C2.84129 10.7399 2.81331 10.6963 2.79462 10.6527C2.77591 10.609 2.79142 10.5731 2.84132 10.545C2.89123 10.5169 2.98141 10.5033 3.11228 10.5033L3.29907 10.5312C3.42365 10.5562 3.57775 10.6307 3.76156 10.7554C3.94527 10.8799 4.09629 11.0418 4.21466 11.2411C4.35799 11.4965 4.53067 11.6912 4.7332 11.8251C4.93557 11.959 5.13961 12.0259 5.34511 12.0259C5.55062 12.0259 5.72812 12.0103 5.87767 11.9793C6.02705 11.9482 6.16721 11.9013 6.29807 11.8391C6.35413 11.4216 6.50676 11.1009 6.75582 10.8767C6.40083 10.8394 6.08167 10.7832 5.79818 10.7085C5.51485 10.6337 5.22207 10.5123 4.92003 10.3439C4.61782 10.1758 4.36712 9.96708 4.16786 9.71805C3.96857 9.46889 3.80502 9.14178 3.67742 8.73701C3.54977 8.33209 3.48592 7.86498 3.48592 7.33557C3.48592 6.58177 3.73201 5.94031 4.22408 5.41083C3.99357 4.84412 4.01533 4.20881 4.28943 3.50498C4.47007 3.44886 4.73795 3.49097 5.09294 3.63106C5.448 3.77122 5.70796 3.89129 5.87308 3.99083C6.03821 4.09035 6.17051 4.17468 6.27019 4.24307C6.84957 4.08118 7.44748 4.00022 8.06406 4.00022C8.68065 4.00022 9.27869 4.08118 9.8581 4.24307L10.2131 4.01894C10.4559 3.86939 10.7426 3.73234 11.0725 3.60776C11.4026 3.48325 11.6551 3.44895 11.8296 3.50508C12.1098 4.20894 12.1347 4.84421 11.9041 5.41093C12.3962 5.94041 12.6424 6.58203 12.6424 7.33567C12.6424 7.86508 12.5783 8.33366 12.4508 8.74169C12.3232 9.1498 12.1582 9.47658 11.9559 9.72273C11.7533 9.96885 11.501 10.176 11.1989 10.344C10.8968 10.5122 10.604 10.6336 10.3206 10.7084C10.0372 10.7833 9.71801 10.8395 9.36302 10.8768C9.68679 11.157 9.84871 11.5993 9.84871 12.2035V14.1747C9.84871 14.2866 9.88765 14.3801 9.9656 14.4548C10.0435 14.5294 10.1664 14.5514 10.3346 14.5201C11.7798 14.0406 12.9586 13.1764 13.871 11.9275C14.7834 10.6787 15.2397 9.27274 15.2397 7.70918C15.2394 6.40771 14.9184 5.20729 14.2772 4.10792Z" fill="#C6C9CD"/>
</svg>
