<svg width="16" height="14" viewBox="0 0 16 14" fill="none" xmlns="http://www.w3.org/2000/svg">
<path d="M14.2913 3.57374C13.6497 2.47434 12.7793 1.60394 11.68 0.962352C10.5805 0.320729 9.38025 0 8.07829 0C6.77649 0 5.57581 0.320828 4.47657 0.962352C3.37717 1.60391 2.50684 2.47434 1.86518 3.57374C1.22363 4.67311 0.902832 5.87363 0.902832 7.17526C0.902832 8.73882 1.35901 10.1448 2.27159 11.3936C3.18407 12.6425 4.36286 13.5067 5.80786 13.9862C5.97606 14.0175 6.10057 13.9955 6.18153 13.9209C6.26253 13.8462 6.30297 13.7527 6.30297 13.6407C6.30297 13.6221 6.30137 13.4539 6.29826 13.1362C6.29505 12.8185 6.29355 12.5413 6.29355 12.3048L6.07865 12.342C5.94163 12.3671 5.76878 12.3778 5.5601 12.3747C5.35152 12.3718 5.13498 12.35 4.91079 12.3093C4.6865 12.269 4.47788 12.1756 4.28478 12.0292C4.09177 11.8829 3.95475 11.6913 3.87376 11.4547L3.78033 11.2397C3.71806 11.0966 3.62002 10.9376 3.48608 10.7633C3.35214 10.5889 3.21669 10.4706 3.07968 10.4083L3.01426 10.3615C2.97067 10.3304 2.93022 10.2928 2.89282 10.2493C2.85545 10.2057 2.82747 10.1621 2.80879 10.1185C2.79007 10.0748 2.80558 10.039 2.85548 10.0108C2.90539 9.98273 2.99557 9.96909 3.12644 9.96909L3.31323 9.997C3.43781 10.022 3.59191 10.0965 3.77572 10.2212C3.95943 10.3457 4.11045 10.5077 4.22882 10.7069C4.37215 10.9623 4.54483 11.157 4.74736 11.2909C4.94973 11.4249 5.15377 11.4917 5.35927 11.4917C5.56478 11.4917 5.74228 11.4761 5.89183 11.4451C6.04121 11.414 6.18137 11.3672 6.31223 11.3049C6.36829 10.8874 6.52092 10.5667 6.76998 10.3425C6.41499 10.3052 6.09583 10.249 5.81234 10.1743C5.52901 10.0995 5.23623 9.97809 4.93419 9.80975C4.63198 9.64165 4.38128 9.4329 4.18202 9.18387C3.98273 8.93471 3.81918 8.6076 3.69158 8.20283C3.56393 7.79791 3.50008 7.3308 3.50008 6.80139C3.50008 6.04759 3.74617 5.40613 4.23824 4.87665C4.00773 4.30994 4.02949 3.67463 4.30359 2.9708C4.48423 2.91468 4.75211 2.95679 5.1071 3.09688C5.46216 3.23704 5.72212 3.35711 5.88724 3.45665C6.05237 3.55617 6.18467 3.6405 6.28435 3.70889C6.86373 3.547 7.46164 3.46604 8.07823 3.46604C8.69481 3.46604 9.29285 3.547 9.87226 3.70889L10.2273 3.48476C10.4701 3.33521 10.7568 3.19817 11.0867 3.07358C11.4168 2.94907 11.6692 2.91477 11.8437 2.9709C12.1239 3.67476 12.1489 4.31003 11.9183 4.87675C12.4103 5.40623 12.6565 6.04785 12.6565 6.80149C12.6565 7.3309 12.5925 7.79948 12.465 8.20751C12.3374 8.61562 12.1724 8.9424 11.97 9.18855C11.7674 9.43467 11.5151 9.64178 11.2131 9.80985C10.911 9.97806 10.6181 10.0995 10.3348 10.1743C10.0513 10.2491 9.73217 10.3053 9.37718 10.3427C9.70095 10.6229 9.86287 11.0651 9.86287 11.6693V13.6405C9.86287 13.7525 9.90181 13.846 9.97976 13.9207C10.0576 13.9952 10.1806 14.0172 10.3488 13.9859C11.794 13.5064 12.9727 12.6422 13.8852 11.3933C14.7975 10.1446 15.2539 8.73856 15.2539 7.175C15.2536 5.87353 14.9326 4.67311 14.2913 3.57374Z" fill="#14C77A"/>
</svg>
