<svg width="33" height="33" viewBox="0 0 33 33" fill="none" xmlns="http://www.w3.org/2000/svg">
<g clip-path="url(#clip0)">
<path d="M26.0758 10.0257L27.9918 8.10967L26.1064 6.22367L24.0568 8.27333C22.1843 6.94639 19.9993 6.12857 17.7158 5.9V3.16667H20.3824V0.5H12.3824V3.16667H15.0491V5.9C12.7656 6.12857 10.5806 6.94639 8.70811 8.27333L6.65844 6.22367L4.77311 8.10967L6.68911 10.0257C4.90064 11.9193 3.70596 14.2952 3.25262 16.8602C2.79927 19.4251 3.10712 22.0666 4.13812 24.4586C5.16913 26.8505 6.87816 28.8881 9.05414 30.3197C11.2301 31.7513 13.7778 32.5142 16.3824 32.5142C18.9871 32.5142 21.5348 31.7513 23.7107 30.3197C25.8867 28.8881 27.5957 26.8505 28.6268 24.4586C29.6578 22.0666 29.9656 19.4251 29.5123 16.8602C29.0589 14.2952 27.8642 11.9193 26.0758 10.0257ZM16.3824 29.8333C14.2728 29.8333 12.2105 29.2077 10.4564 28.0357C8.70224 26.8636 7.33506 25.1977 6.52773 23.2486C5.72039 21.2995 5.50916 19.1548 5.92073 17.0857C6.33231 15.0166 7.34821 13.116 8.83997 11.6242C10.3317 10.1324 12.2323 9.11653 14.3015 8.70496C16.3706 8.29338 18.5153 8.50462 20.4644 9.31195C22.4135 10.1193 24.0794 11.4865 25.2514 13.2406C26.4235 14.9947 27.0491 17.057 27.0491 19.1667C27.0459 21.9947 25.9211 24.7059 23.9214 26.7056C21.9217 28.7053 19.2104 29.8302 16.3824 29.8333Z" fill="#CCCCCC"/>
<path d="M16.3824 11.1665V19.1665H8.38245C8.38245 20.7488 8.85164 22.2955 9.73069 23.6111C10.6097 24.9267 11.8592 25.952 13.321 26.5575C14.7828 27.163 16.3913 27.3215 17.9432 27.0128C19.495 26.7041 20.9205 25.9422 22.0393 24.8234C23.1581 23.7045 23.92 22.2791 24.2287 20.7272C24.5374 19.1754 24.379 17.5668 23.7735 16.105C23.168 14.6432 22.1426 13.3938 20.827 12.5147C19.5114 11.6357 17.9647 11.1665 16.3824 11.1665Z" fill="#6D9DD6"/>
</g>
<defs>
<clipPath id="clip0">
<rect width="32" height="32" fill="white" transform="translate(0.382446 0.5)"/>
</clipPath>
</defs>
</svg>
