<svg width="33" height="33" viewBox="0 0 33 33" fill="none" xmlns="http://www.w3.org/2000/svg">
<path d="M27.6959 5.1865C21.4473 -1.06219 11.3163 -1.06219 5.06888 5.18663C-1.17974 11.4352 -1.17974 21.5662 5.06913 27.8136C11.3163 34.0622 21.4473 34.0622 27.6959 27.8134C33.9446 21.5662 33.9446 11.4353 27.6959 5.1865ZM25.8104 25.9277C20.6031 31.1351 12.1607 31.1351 6.95476 25.928C1.74738 20.7218 1.74738 12.2794 6.95463 7.07219C12.1607 1.86487 20.6031 1.86487 25.8103 7.07219C31.0176 12.2795 31.0176 20.7218 25.8104 25.9277Z" fill="#CCCCCC"/>
<path d="M23.4394 10.224L15.0489 18.6145L10.6584 14.224C10.1377 13.7033 9.29344 13.7033 8.77275 14.224C8.25206 14.7447 8.25206 15.5889 8.77275 16.1096L14.1061 21.4429C14.6267 21.9636 15.471 21.9636 15.9917 21.4429L25.325 12.1096C25.8457 11.5889 25.8457 10.7447 25.325 10.224C24.8043 9.70332 23.9601 9.70332 23.4394 10.224Z" fill="#6D9DD6"/>
</svg>
