<svg width="33" height="33" viewBox="0 0 33 33" fill="none" xmlns="http://www.w3.org/2000/svg">
<g clip-path="url(#clip0)">
<path d="M16.3199 0.4375C7.48328 0.4375 0.319946 7.60083 0.319946 16.4375C0.319946 25.2742 7.48328 32.4375 16.3199 32.4375C25.1566 32.4375 32.32 25.2742 32.32 16.4375C32.3095 7.60523 25.1522 0.447998 16.3199 0.4375ZM16.3199 30.4375C8.58801 30.4375 2.31995 24.1694 2.31995 16.4375C2.31995 8.70557 8.58801 2.4375 16.3199 2.4375C24.0519 2.4375 30.32 8.70557 30.32 16.4375C30.3116 24.166 24.0485 30.4292 16.3199 30.4375Z" fill="#CCCCCC"/>
<path d="M24.098 8.65924C23.7074 8.26886 23.0743 8.26886 22.6839 8.65924L16.3199 15.0233L9.9559 8.65924C9.57211 8.26202 8.93905 8.25104 8.54184 8.63482C8.14462 9.01837 8.13363 9.65143 8.51742 10.0486C8.52548 10.0569 8.53354 10.0652 8.54184 10.0733L14.9059 16.4373L8.54184 22.8013C8.14462 23.1849 8.13363 23.8179 8.51742 24.2154C8.90097 24.6126 9.53403 24.6236 9.93124 24.2398C9.93954 24.2318 9.94784 24.2237 9.9559 24.2154L16.3199 17.8514L22.6839 24.2154C23.0811 24.5989 23.7142 24.588 24.0977 24.1907C24.472 23.8033 24.472 23.1888 24.0977 22.8013L17.734 16.4373L24.098 10.0733C24.4884 9.68292 24.4884 9.04986 24.098 8.65924Z" fill="#6D9DD6"/>
</g>
<defs>
<clipPath id="clip0">
<rect width="32" height="32" fill="white" transform="translate(0.382446 0.5)"/>
</clipPath>
</defs>
</svg>
