<svg width="120" height="120" viewBox="0 0 120 120" fill="none" xmlns="http://www.w3.org/2000/svg">
<path d="M120 60C120 93.1371 93.1371 120 60 120C26.8629 120 0 93.1371 0 60C0 26.8629 26.8629 0 60 0C93.1371 0 120 26.8629 120 60ZM9 60C9 88.1665 31.8335 111 60 111C88.1665 111 111 88.1665 111 60C111 31.8335 88.1665 9 60 9C31.8335 9 9 31.8335 9 60Z" fill="#111B28" fill-opacity="0.12"/>
<path d="M60 0C71.8669 1.41511e-07 83.4673 3.51894 93.3342 10.1118C103.201 16.7047 110.892 26.0754 115.433 37.039C119.974 48.0026 121.162 60.0666 118.847 71.7054C116.532 83.3443 110.818 94.0353 102.426 102.426C94.0353 110.818 83.3443 116.532 71.7054 118.847C60.0666 121.162 48.0026 119.974 37.039 115.433C26.0754 110.892 16.7047 103.201 10.1118 93.3342C3.51894 83.4673 -2.83022e-07 71.8669 0 60H9C9 70.0868 11.9911 79.9472 17.595 88.3341C23.199 96.721 31.1641 103.258 40.4831 107.118C49.8022 110.978 60.0566 111.988 69.9496 110.02C79.8426 108.052 88.93 103.195 96.0624 96.0624C103.195 88.93 108.052 79.8426 110.02 69.9496C111.988 60.0566 110.978 49.8022 107.118 40.4831C103.258 31.1641 96.721 23.199 88.3341 17.5951C79.9472 11.9911 70.0868 9 60 9V0Z" fill="#0055FF"/>
</svg>
