<svg width="120" height="120" viewBox="0 0 120 120" fill="none" xmlns="http://www.w3.org/2000/svg">
<path d="M120 60C120 93.1371 93.1371 120 60 120C26.8629 120 0 93.1371 0 60C0 26.8629 26.8629 0 60 0C93.1371 0 120 26.8629 120 60ZM9 60C9 88.1665 31.8335 111 60 111C88.1665 111 111 88.1665 111 60C111 31.8335 88.1665 9 60 9C31.8335 9 9 31.8335 9 60Z" fill="#111B28" fill-opacity="0.12"/>
<path d="M60 0C67.8793 9.39599e-08 75.6815 1.55195 82.961 4.56723C90.2405 7.58251 96.8549 12.0021 102.426 17.5736C107.998 23.1451 112.417 29.7595 115.433 37.039C118.448 44.3185 120 52.1207 120 60C120 67.8793 118.448 75.6815 115.433 82.961C112.417 90.2406 107.998 96.8549 102.426 102.426C96.8549 107.998 90.2405 112.417 82.961 115.433C75.6814 118.448 67.8793 120 60 120V111C66.6974 111 73.3292 109.681 79.5168 107.118C85.7044 104.555 91.3266 100.798 96.0624 96.0625C100.798 91.3267 104.555 85.7045 107.118 79.5169C109.681 73.3293 111 66.6974 111 60C111 53.3026 109.681 46.6708 107.118 40.4832C104.555 34.2955 100.798 28.6733 96.0624 23.9376C91.3267 19.2018 85.7045 15.4451 79.5169 12.8821C73.3293 10.3192 66.6974 9 60 9V0Z" fill="#0055FF"/>
</svg>
