<svg width="135" height="24" viewBox="0 0 135 24" fill="none" xmlns="http://www.w3.org/2000/svg">
<path d="M39.9599 0L31.9902 8.00679L23.9833 0L15.9765 8.00679L8.0068 0L0 8.00679L8.0068 15.9765L15.9765 23.9833L23.9833 15.9765L31.9902 23.9833L39.9599 15.9765L47.9667 8.00679L39.9599 0Z" fill="black"/>
<path d="M47.9574 8.01118L39.963 16.0056L47.9574 24L55.9518 16.0056L47.9574 8.01118Z" fill="#0055FF"/>
<path d="M76.8427 11.6475H79.3919V17.4298C78.6458 18.0239 77.7753 18.4799 76.7805 18.7976C75.7857 19.1154 74.7633 19.2743 73.7132 19.2743C72.2348 19.2743 70.9015 18.9565 69.7133 18.321C68.525 17.6716 67.5924 16.7804 66.9154 15.6474C66.2384 14.5145 65.8999 13.2364 65.8999 11.8133C65.8999 10.3902 66.2384 9.11212 66.9154 7.97915C67.5924 6.84618 68.525 5.96191 69.7133 5.32634C70.9153 4.67696 72.2625 4.35226 73.7547 4.35226C74.9705 4.35226 76.0759 4.55261 77.0707 4.95329C78.0655 5.35398 78.9014 5.94119 79.5784 6.71492L77.879 8.37293C76.7736 7.26759 75.4403 6.71492 73.879 6.71492C72.8566 6.71492 71.9447 6.92908 71.1433 7.3574C70.3558 7.78572 69.734 8.38675 69.2781 9.16048C68.8359 9.93422 68.6149 10.8185 68.6149 11.8133C68.6149 12.7805 68.8359 13.6509 69.2781 14.4247C69.734 15.1984 70.3558 15.8063 71.1433 16.2485C71.9447 16.6906 72.8497 16.9117 73.8583 16.9117C74.9913 16.9117 75.9861 16.663 76.8427 16.1656V11.6475Z" fill="black"/>
<path d="M84.9558 9.61643C85.7019 8.45583 87.0145 7.87553 88.8935 7.87553V10.3418C88.6725 10.3004 88.4721 10.2796 88.2925 10.2796C87.2839 10.2796 86.4963 10.5767 85.9298 11.1708C85.3634 11.7511 85.0801 12.5939 85.0801 13.6993V19.0671H82.4895V7.99988H84.9558V9.61643Z" fill="black"/>
<path d="M95.0511 7.87553C96.6815 7.87553 97.925 8.2693 98.7817 9.05686C99.6521 9.83059 100.087 11.005 100.087 12.5801V19.0671H97.6418V17.7199C97.324 18.2035 96.868 18.5766 96.2739 18.8391C95.6936 19.0878 94.989 19.2121 94.16 19.2121C93.331 19.2121 92.6056 19.074 91.9838 18.7976C91.3621 18.5075 90.8785 18.1137 90.5331 17.6163C90.2015 17.1051 90.0357 16.5317 90.0357 15.8961C90.0357 14.9013 90.4018 14.1069 91.1341 13.5127C91.8802 12.9048 93.0477 12.6008 94.6366 12.6008H97.4967V12.435C97.4967 11.6613 97.2618 11.0672 96.792 10.6527C96.3361 10.2382 95.6522 10.0309 94.7403 10.0309C94.1185 10.0309 93.5037 10.1277 92.8957 10.3211C92.3016 10.5145 91.7973 10.7839 91.3828 11.1294L90.3673 9.24338C90.9476 8.80125 91.6453 8.46274 92.4605 8.22785C93.2757 7.99297 94.1392 7.87553 95.0511 7.87553ZM94.6988 17.3262C95.3482 17.3262 95.9216 17.1811 96.419 16.8909C96.9302 16.587 97.2894 16.1586 97.4967 15.606V14.321H94.8232C93.331 14.321 92.5849 14.8115 92.5849 15.7925C92.5849 16.2623 92.7714 16.6353 93.1444 16.9117C93.5175 17.188 94.0356 17.3262 94.6988 17.3262Z" fill="black"/>
<path d="M109.485 7.87553C110.88 7.87553 111.999 8.28312 112.842 9.09831C113.685 9.91349 114.106 11.1225 114.106 12.7252V19.0671H111.516V13.0568C111.516 12.0896 111.288 11.3642 110.832 10.8807C110.376 10.3833 109.726 10.1346 108.884 10.1346C107.93 10.1346 107.177 10.4247 106.624 11.005C106.072 11.5715 105.795 12.3936 105.795 13.4713V19.0671H103.205V7.99988H105.671V9.42991C106.099 8.91869 106.638 8.53182 107.288 8.2693C107.937 8.00679 108.669 7.87553 109.485 7.87553Z" fill="black"/>
<path d="M123.838 18.466C123.534 18.7147 123.161 18.9013 122.719 19.0256C122.291 19.15 121.835 19.2121 121.351 19.2121C120.135 19.2121 119.196 18.8944 118.532 18.2588C117.869 17.6232 117.538 16.6975 117.538 15.4816V10.1553H115.714V8.08278H117.538V5.55432H120.128V8.08278H123.092V10.1553H120.128V15.4195C120.128 15.9583 120.26 16.3728 120.522 16.663C120.785 16.9393 121.165 17.0775 121.662 17.0775C122.242 17.0775 122.726 16.9255 123.113 16.6215L123.838 18.466Z" fill="black"/>
<path d="M129.182 19.2121C128.284 19.2121 127.406 19.0947 126.55 18.8598C125.693 18.6249 125.009 18.3279 124.498 17.9686L125.493 15.9998C125.99 16.3314 126.584 16.6008 127.275 16.808C127.98 17.0015 128.67 17.0982 129.347 17.0982C130.895 17.0982 131.669 16.6906 131.669 15.8754C131.669 15.4885 131.468 15.2191 131.068 15.0671C130.681 14.9151 130.052 14.7701 129.182 14.6319C128.27 14.4937 127.524 14.3348 126.943 14.1552C126.377 13.9756 125.879 13.6647 125.451 13.2226C125.037 12.7666 124.829 12.138 124.829 11.3366C124.829 10.2865 125.265 9.45063 126.135 8.82888C127.019 8.19331 128.208 7.87553 129.7 7.87553C130.46 7.87553 131.22 7.96534 131.979 8.14495C132.739 8.31075 133.361 8.53873 133.845 8.82888L132.85 10.7978C131.91 10.2451 130.853 9.96876 129.679 9.96876C128.919 9.96876 128.339 10.0862 127.938 10.3211C127.551 10.5422 127.358 10.8392 127.358 11.2123C127.358 11.6268 127.565 11.9238 127.98 12.1034C128.408 12.2692 129.064 12.4281 129.948 12.5801C130.833 12.7183 131.558 12.8772 132.125 13.0568C132.691 13.2364 133.175 13.5404 133.575 13.9687C133.99 14.397 134.197 15.005 134.197 15.7925C134.197 16.8288 133.748 17.6578 132.85 18.2795C131.952 18.9013 130.729 19.2121 129.182 19.2121Z" fill="black"/>
</svg>
