<svg width="135" height="24" viewBox="0 0 135 24" fill="none" xmlns="http://www.w3.org/2000/svg">
<path d="M39.9599 0L31.9902 8.00679L23.9833 0L15.9765 8.00679L8.0068 0L0 8.00679L8.0068 15.9765L15.9765 23.9833L23.9833 15.9765L31.9902 23.9833L39.9599 15.9765L47.9667 8.00679L39.9599 0Z" fill="black"/>
<path d="M47.9574 8.0112L39.963 16.0056L47.9574 24L55.9518 16.0056L47.9574 8.0112Z" fill="#0055FF"/>
<path d="M65.88 5H72C73.4933 5 74.82 5.29333 75.98 5.88C77.14 6.45333 78.04 7.27333 78.68 8.34C79.32 9.39333 79.64 10.6133 79.64 12C79.64 13.3867 79.32 14.6133 78.68 15.68C78.04 16.7333 77.14 17.5533 75.98 18.14C74.82 18.7133 73.4933 19 72 19H65.88V5ZM71.88 16.8C72.9067 16.8 73.8067 16.6067 74.58 16.22C75.3667 15.82 75.9667 15.26 76.38 14.54C76.8067 13.8067 77.02 12.96 77.02 12C77.02 11.04 76.8067 10.2 76.38 9.48C75.9667 8.74667 75.3667 8.18667 74.58 7.8C73.8067 7.4 72.9067 7.2 71.88 7.2H68.48V16.8H71.88ZM91.0881 15.76H84.0881L82.7081 19H80.0281L86.3281 5H88.8881L95.2081 19H92.4881L91.0881 15.76ZM90.2281 13.72L87.5881 7.6L84.9681 13.72H90.2281ZM103.133 19.2C101.707 19.2 100.42 18.8933 99.2733 18.28C98.1266 17.6533 97.2266 16.7933 96.5733 15.7C95.9199 14.5933 95.5933 13.36 95.5933 12C95.5933 10.64 95.9199 9.41333 96.5733 8.32C97.2266 7.21333 98.1266 6.35333 99.2733 5.74C100.42 5.11333 101.707 4.8 103.133 4.8C104.56 4.8 105.847 5.11333 106.993 5.74C108.14 6.35333 109.04 7.20667 109.693 8.3C110.347 9.39333 110.673 10.6267 110.673 12C110.673 13.3733 110.347 14.6067 109.693 15.7C109.04 16.7933 108.14 17.6533 106.993 18.28C105.847 18.8933 104.56 19.2 103.133 19.2ZM103.133 16.92C104.067 16.92 104.907 16.7133 105.653 16.3C106.4 15.8733 106.987 15.2867 107.413 14.54C107.84 13.78 108.053 12.9333 108.053 12C108.053 11.0667 107.84 10.2267 107.413 9.48C106.987 8.72 106.4 8.13333 105.653 7.72C104.907 7.29333 104.067 7.08 103.133 7.08C102.2 7.08 101.36 7.29333 100.613 7.72C99.8666 8.13333 99.2799 8.72 98.8533 9.48C98.4266 10.2267 98.2133 11.0667 98.2133 12C98.2133 12.9333 98.4266 13.78 98.8533 14.54C99.2799 15.2867 99.8666 15.8733 100.613 16.3C101.36 16.7133 102.2 16.92 103.133 16.92Z" fill="black"/>
</svg>
