<svg width="68" height="67" viewBox="0 0 68 67" fill="none" xmlns="http://www.w3.org/2000/svg">
<path d="M27.0497 7.64701C32.7289 6.36387 38.6707 6.95092 43.989 9.32061L46.7293 10.5416L49.1713 5.06104L46.431 3.84004C39.9309 0.943755 32.6687 0.226245 25.7274 1.79452C18.7862 3.3628 12.5379 7.13285 7.91433 12.5424C3.29078 17.9519 0.539756 24.7111 0.0715334 31.8119C-0.396689 38.9127 1.44298 45.9746 5.31617 51.9444C9.18936 57.9142 14.8886 62.472 21.5638 64.9382C28.239 67.4043 35.5325 67.6466 42.3567 65.6289C49.1808 63.6112 55.17 59.4417 59.4308 53.7421C63.6917 48.0425 65.996 41.1182 66 34.002V28.2403H60V33.9986C59.9967 39.821 58.1114 45.4862 54.6252 50.1495C51.1391 54.8128 46.2389 58.2243 40.6555 59.8751C35.0721 61.526 29.1046 61.3277 23.6431 59.31C18.1815 57.2922 13.5186 53.5631 10.3496 48.6787C7.18063 43.7943 5.67544 38.0164 6.05853 32.2067C6.44162 26.3969 8.69246 20.8667 12.4754 16.4407C16.2583 12.0147 21.3705 8.93014 27.0497 7.64701Z" fill="#14C77A"/>
<path d="M67.2427 9.99788L62.9979 5.75736L32.999 35.7863L24 26.7874L19.7574 31.03L30.8787 42.1513C31.4415 42.7141 32.2048 43.0302 33.0008 43.03C33.7967 43.0298 34.5599 42.7133 35.1224 42.1503L67.2427 9.99788Z" fill="#14C77A"/>
</svg>
