<svg width="14" height="14" viewBox="0 0 14 14" fill="none" xmlns="http://www.w3.org/2000/svg">
<g clip-path="url(#clip0)">
<path d="M6.17308 0C7.87313 0 9.41491 0.685758 10.5315 1.78805C11.6483 2.89502 12.3356 4.41864 12.3356 6.10814C12.3356 7.34054 11.9646 8.49229 11.3318 9.45125L13.9994 12.3328L12.1591 13.9999L9.58664 11.1946C8.61005 11.84 7.4345 12.2165 6.17308 12.2165C4.47314 12.2165 2.93136 11.5307 1.81454 10.4285C0.721634 9.34495 0.0401171 7.86247 0.0116104 6.21603C-0.00448204 6.15701 -0.00436709 6.09515 0.0110357 6.0367C0.0302318 4.3799 0.718071 2.87941 1.81454 1.78805C2.93136 0.681201 4.46854 0 6.17308 0ZM0.784624 5.14336C0.856581 5.07386 0.929227 5.00596 1.00256 4.93988C2.42514 3.65643 4.11462 2.97078 5.85617 2.93626C7.59393 2.90186 9.37606 3.51675 10.9877 4.83381C11.195 5.00311 11.3987 5.18324 11.5984 5.3743C11.4335 4.17026 10.8689 3.0903 10.0433 2.27204C9.05317 1.29074 7.68324 0.681201 6.17308 0.681201C4.66291 0.681201 3.29298 1.29074 2.30284 2.27215C1.53051 3.03766 0.98647 4.03241 0.784624 5.14336ZM11.5711 7.01971C11.3072 7.30898 11.0255 7.5708 10.7292 7.80539C9.43997 8.82542 7.87371 9.32764 6.28722 9.33482C4.70602 9.34188 3.10551 8.85664 1.74155 7.90177C1.41074 7.67026 1.09372 7.41107 0.794165 7.12464C1.00337 8.21486 1.54258 9.19069 2.30295 9.94447C3.2931 10.9259 4.66303 11.5353 6.17319 11.5353C7.68324 11.5353 9.05317 10.9259 10.0433 9.94447C10.8281 9.16654 11.3769 8.1522 11.5711 7.01971ZM6.09733 5.53757C6.1563 5.53757 6.21319 5.54588 6.26699 5.56149C6.2217 5.61082 6.19423 5.67633 6.19423 5.74823C6.19423 5.90169 6.31975 6.02611 6.47447 6.02611C6.55033 6.02611 6.6193 5.99614 6.66976 5.94761C6.6893 6.00651 6.69999 6.06952 6.69999 6.13491C6.69999 6.46486 6.43021 6.73237 6.09721 6.73237C5.76433 6.73237 5.49444 6.46486 5.49444 6.13491C5.49455 5.80496 5.76444 5.53757 6.09733 5.53757ZM6.09733 3.99959C6.69206 3.99959 7.23058 4.23862 7.6206 4.62508C8.0105 5.01154 8.25154 5.54531 8.25154 6.13491C8.25154 6.7244 8.01038 7.25828 7.6206 7.64463C7.23058 8.0312 6.69218 8.27012 6.09733 8.27012C5.50248 8.27012 4.96396 8.03109 4.57406 7.64463C4.18416 7.25817 3.943 6.72428 3.943 6.13491C3.943 5.54531 4.18416 5.01154 4.57406 4.62508C4.96384 4.23862 5.50248 3.99959 6.09733 3.99959ZM7.13426 5.10702C6.86908 4.84406 6.50228 4.68136 6.09733 4.68136C5.69226 4.68136 5.32546 4.84417 5.06028 5.10702C4.79499 5.36997 4.63084 5.73353 4.63084 6.13491C4.63084 6.5363 4.79499 6.89985 5.06028 7.16281C5.32558 7.42577 5.69226 7.58846 6.09733 7.58846C6.5024 7.58846 6.86908 7.42565 7.13426 7.16281C7.39956 6.89985 7.5637 6.53641 7.5637 6.13491C7.5637 5.73342 7.39956 5.36986 7.13426 5.10702ZM1.47695 5.45667C1.24636 5.66471 1.02429 5.88848 0.811867 6.12751C1.21579 6.5919 1.66546 6.99328 2.14697 7.33029C3.39126 8.20119 4.84798 8.64404 6.28446 8.63755C7.71543 8.63117 9.128 8.17829 10.2907 7.25851C10.6875 6.94452 11.0553 6.57572 11.3851 6.15132C11.1086 5.86558 10.8268 5.60604 10.5408 5.37259C9.06432 4.16582 7.44277 3.60231 5.86996 3.63341C4.30083 3.66452 2.77193 4.28841 1.47695 5.45667Z" fill="#C6C9CD"/>
</g>
<defs>
<clipPath id="clip0">
<rect width="14" height="14" fill="white"/>
</clipPath>
</defs>
</svg>
