<svg width="32" height="33" viewBox="0 0 32 33" fill="none" xmlns="http://www.w3.org/2000/svg">
<g clip-path="url(#clip0)">
<path d="M28.6667 18.5884C30.504 18.5884 32 17.0924 32 15.2551V4.58838C32 2.75107 30.504 1.25507 28.6667 1.25507H24.6667C23.916 1.25507 23.2254 1.50838 22.6667 1.92975V18.5884H28.6667Z" fill="#0055FF"/>
<path d="M-5.72205e-06 13.5884C-5.72205e-06 14.3898 0.317308 15.1364 0.867994 15.6871C0.245308 16.3684 -0.0720062 17.2818 0.0146809 18.2324C0.170681 19.9271 1.69737 21.2551 3.492 21.2551H11.728C11.32 22.4938 10.6667 24.7644 10.6667 26.5884C10.6667 29.4804 13.124 31.9218 14.6667 31.9218C16.052 31.9218 17.0414 31.1418 17.084 31.1098C17.2413 30.9831 17.3333 30.7911 17.3333 30.5884V26.0671L21.1733 17.7484L21.3333 17.6671V3.37644C20.248 2.86444 18.8747 2.58844 18 2.58844H5.76131C4.30931 2.58844 3.03862 3.56713 2.74 4.91775C2.58669 5.61244 2.67599 6.31244 2.98131 6.92044C1.99599 7.41644 1.33331 8.43113 1.33331 9.58844C1.33331 10.0604 1.44131 10.5124 1.64662 10.9218C0.661308 11.4178 -5.72205e-06 12.4324 -5.72205e-06 13.5884Z" fill="#0055FF"/>
</g>
<defs>
<clipPath id="clip0">
<rect width="32" height="32" fill="white" transform="translate(32 32.5884) rotate(-180)"/>
</clipPath>
</defs>
</svg>
