<svg width="32" height="33" viewBox="0 0 32 33" fill="none" xmlns="http://www.w3.org/2000/svg">
<g clip-path="url(#clip0)">
<path d="M27.3135 5.27488C21.0648 -0.973808 10.9338 -0.973809 4.68644 5.275C-1.56219 11.5236 -1.56219 21.6546 4.68669 27.9019C10.9338 34.1506 21.0648 34.1506 27.3135 27.9018C33.5622 21.6546 33.5622 11.5236 27.3135 5.27488ZM25.428 26.0161C20.2206 31.2235 11.7782 31.2235 6.57231 26.0164C1.36494 20.8102 1.36494 12.3678 6.57219 7.16057C11.7782 1.95325 20.2206 1.95325 25.4279 7.16057C30.6351 12.3679 30.6351 20.8102 25.428 26.0161Z" fill="#CCCCCC"/>
<path d="M25.9713 14.333C25.9024 14.1208 25.7191 13.9662 25.4984 13.9342L19.2983 13.0332L16.5254 7.41498C16.4267 7.21498 16.223 7.08838 16 7.08838C15.777 7.08838 15.5733 7.21498 15.4746 7.41498L12.7016 13.0332L6.50167 13.9342C6.28101 13.9662 6.09761 14.1208 6.02871 14.3329C5.95976 14.5451 6.01726 14.7779 6.17699 14.9336L10.6632 19.3068L9.60432 25.4819C9.56658 25.7017 9.65697 25.9238 9.8374 26.0549C9.93947 26.1291 10.0604 26.1668 10.1819 26.1668C10.2751 26.1668 10.3687 26.1446 10.4544 26.0995L16 23.184L21.5453 26.0995C21.7428 26.2033 21.982 26.186 22.1624 26.0549C22.3428 25.9238 22.4332 25.7016 22.3955 25.4818L21.3363 19.3068L25.823 14.9335C25.9827 14.7779 26.0403 14.5451 25.9713 14.333Z" fill="#6D9DD6"/>
</g>
<defs>
<clipPath id="clip0">
<rect width="32" height="32" fill="white" transform="translate(0 0.588379)"/>
</clipPath>
</defs>
</svg>
