<svg width="32" height="33" viewBox="0 0 32 33" fill="none" xmlns="http://www.w3.org/2000/svg">
<g clip-path="url(#clip0)">
<path d="M3.33331 14.5884C1.496 14.5884 0 16.0844 0 17.9217V28.5884C0 30.4257 1.496 31.9217 3.33331 31.9217H7.33331C8.084 31.9217 8.77462 31.6684 9.33331 31.247V14.5884H3.33331Z" fill="#0055FF"/>
<path d="M32 19.5884C32 18.7871 31.6827 18.0404 31.132 17.4898C31.7547 16.8084 32.072 15.8951 31.9853 14.9444C31.8293 13.2498 30.3026 11.9218 28.508 11.9218H20.272C20.68 10.6831 21.3333 8.41244 21.3333 6.58844C21.3333 3.69644 18.876 1.25513 17.3333 1.25513C15.948 1.25513 14.9586 2.03513 14.916 2.06713C14.7587 2.19381 14.6667 2.38581 14.6667 2.58844V7.10975L10.8267 15.4284L10.6667 15.5098V29.8004C11.752 30.3124 13.1253 30.5884 14 30.5884H26.2387C27.6907 30.5884 28.9614 29.6098 29.26 28.2591C29.4133 27.5644 29.324 26.8644 29.0187 26.2564C30.004 25.7604 30.6667 24.7458 30.6667 23.5884C30.6667 23.1164 30.5587 22.6644 30.3534 22.2551C31.3387 21.7591 32 20.7444 32 19.5884Z" fill="#0055FF"/>
</g>
<defs>
<clipPath id="clip0">
<rect width="32" height="32" fill="white" transform="translate(0 0.588379)"/>
</clipPath>
</defs>
</svg>
