<svg xmlns="http://www.w3.org/2000/svg" width="20" height="20" viewBox="0 0 20 20">
  <path d="M4.98 4.063H2.008a.94.94 0 00-.919.749l-.058.285a19.67 19.67 0 00.057 8.23.943.943 0 00.916.736H4.98a.939.939 0 00.938-.938V5a.939.939 0 00-.938-.938zm-.313 8.75H2.258a18.419 18.419 0 01-.002-7.465l.008-.035h2.403v7.5z"/>
  <path d="M19.251 8.534l-2.783-4.892a.947.947 0 00-.822-.478h-5.14a.946.946 0 00-.479.13l-2.813 1.65v1.45l3.374-1.98h4.881l2.656 4.668v.362l-.77 2.052h-5.011l-.625.625v1.913l.055.257.43.951a2.193 2.193 0 01-.849 2.769l-3.23-7.074h-.938v.938l3.165 6.947a.95.95 0 001.24.472 3.443 3.443 0 001.75-4.567l-.373-.828v-1.153h4.597a.949.949 0 00.886-.614l.862-2.3a.941.941 0 00.06-.333v-.498a.948.948 0 00-.123-.467z"/>
</svg>
