<svg xmlns="http://www.w3.org/2000/svg" width="21" height="20" viewBox="0 0 21 20">
  <path d="M5.447 7.917H2.53a.965.965 0 00-.947.76 19.027 19.027 0 00-.058 8.067l.06.28a.974.974 0 00.949.773h2.912a.971.971 0 00.97-.97v-7.94a.971.971 0 00-.97-.97zm-.28 8.63H2.762l-.012-.058a17.777 17.777 0 01.006-7.322h2.411v7.38z"/>
  <path d="M19.815 10.831l-.863-2.3a.95.95 0 00-.885-.614h-4.598V6.763l.374-.828a3.442 3.442 0 00-1.75-4.567.95.95 0 00-1.241.473L7.715 8.708v.98h.927l3.214-7.037a2.193 2.193 0 01.848 2.77l-.43.95-.055.257v1.914l.625.625h5.012l.77 2.052v.362l-2.657 4.667h-4.88L7.715 14.27v1.45l2.813 1.65c.145.084.31.13.478.13h5.14a.947.947 0 00.822-.479l2.784-4.891a.947.947 0 00.123-.468v-.498a.946.946 0 00-.06-.332z"/>
</svg>
