<svg width="200" height="200" viewBox="0 0 200 200" fill="none" xmlns="http://www.w3.org/2000/svg">
    <rect width="200" height="200" fill="white"/>
    <path d="M173 118.007C173 159.661 140.541 193.429 100.5 193.429C60.4594 193.429 28 159.661 28 118.007C28 76.3533 60.4594 7 100.5 7C140.541 7 173 76.3533 173 118.007Z" fill="#0055FF"/>
    <mask id="mask0" mask-type="alpha" maskUnits="userSpaceOnUse" x="28" y="7" width="145" height="187">
        <path d="M173 118.007C173 159.661 140.541 193.429 100.5 193.429C60.4594 193.429 28 159.661 28 118.007C28 76.3533 60.4594 7 100.5 7C140.541 7 173 76.3533 173 118.007Z" fill="#D0CEE8"/>
    </mask>
    <g mask="url(#mask0)">
        <path d="M157.441 84.061C157.441 125.715 124.982 159.482 84.9413 159.482C44.9006 159.482 12.4413 125.715 12.4413 84.061C12.4413 42.407 44.9006 -26.9464 84.9413 -26.9464C124.982 -26.9464 157.441 42.407 157.441 84.061Z" fill="#6B9DFF"/>
    </g>
    <path d="M88.9482 73.1634C86.2961 84.8343 76.9578 92.6619 68.0904 90.6469C59.223 88.6319 54.1844 77.5373 56.8365 65.8664C59.4885 54.1955 71.056 40.5985 79.9234 42.6135C88.7908 44.6285 91.6002 61.4925 88.9482 73.1634Z" fill="#E2ECFF"/>
</svg>
