<svg width="100" height="122" viewBox="0 0 100 122" fill="none" xmlns="http://www.w3.org/2000/svg">
<path d="M93.0239 51.398V32.194H86.4048V19.3914H79.7858V12.9901H73.1667V6.58873H59.9286V0.187401H40.0714V6.58873H26.8333V12.9901H20.2142V19.3914H13.5952V32.194H6.97612V51.398H0.357056V89.806H6.97612V102.609H13.5952V109.01H20.2142V115.411H33.4524V121.813H66.5477V115.411H79.7858V109.01H86.4048V102.609H93.0239V89.806H99.6429V51.398H93.0239Z" fill="#0055FF"/>
<path d="M76 44.8947V30.6842H71V21.2105H66V16.4737H61V11.7368H51V3C47 3 46 3 42 3V8H34.5V11.7368H29V16.4737H22V21.2105H16V30.6842V34.5H11V44.8947V54H6V73.3158H11V82.7895H16V87.5263H21V92.2632H31V97H56V92.2632H66V87.5263H71V82.7895H76V73.3158H81V44.8947H76Z" fill="#6B9DFF"/>
<path d="M35.4333 40.5V37.5H37.4333V33.5H39.0667V28.6053H37.6L37.4333 26H36.1333V24.5H34.4333V23H29.9333V24.5H27.3333V27.2368H24.4V28.6053H22V31.3421H21V35.4474H20V43.6579H21.4667V46.3947H22.9333V47.7632H24.4V49.1316H25.9333V50.5H28.8V49.1316H29.9333V47.7632H31.4333V46.5L33 46.3947V43.6579H34.4333V40.5H35.4333Z" fill="white"/>
</svg>
