<svg width="24" height="24" viewBox="0 0 24 24" fill="none" xmlns="http://www.w3.org/2000/svg">
<path d="M4.28513 7.26902C4.29666 7.15424 4.28093 7.03835 4.23923 6.93079C4.19753 6.82323 4.13102 6.72703 4.04513 6.65002L2.27513 4.51702V4.19702H7.77313L12.0231 13.517L15.7591 4.19702H21.0001V4.51602L19.4851 5.96702C19.4217 6.01641 19.3727 6.08187 19.3432 6.15661C19.3136 6.23135 19.3046 6.31263 19.3171 6.39202V17.058C19.3044 17.1374 19.3133 17.2188 19.3429 17.2936C19.3724 17.3683 19.4216 17.4338 19.4851 17.483L20.9641 18.934V19.253H13.5281V18.934L15.0571 17.447C15.2091 17.297 15.2091 17.252 15.2091 17.023V8.40102L10.9501 19.218H10.3751L5.41713 8.40102V15.65C5.37613 15.955 5.47713 16.262 5.69213 16.483L7.68413 18.9V19.219H2.03613V18.9L4.02813 16.483C4.13293 16.3738 4.21075 16.2416 4.25537 16.097C4.29999 15.9524 4.31018 15.7993 4.28513 15.65V7.26902Z" fill="#717781"/>
</svg>
