<svg width="14" height="12" viewBox="0 0 14 12" fill="none" xmlns="http://www.w3.org/2000/svg">
<path d="M13.5001 1.97344C13.022 2.17969 12.5017 2.32813 11.9657 2.38594C12.5221 2.05538 12.9388 1.53313 13.1376 0.917194C12.6155 1.2278 12.0435 1.44561 11.447 1.56094C11.1977 1.29442 10.8961 1.0821 10.5612 0.937206C10.2262 0.792311 9.86504 0.71795 9.5001 0.718756C8.02353 0.718756 6.83604 1.91563 6.83604 3.38438C6.83604 3.59063 6.86104 3.79688 6.90166 3.99532C4.69072 3.87969 2.71885 2.82344 1.40791 1.20626C1.16904 1.61425 1.04387 2.0788 1.04541 2.55157C1.04541 3.47657 1.51572 4.29219 2.23291 4.77188C1.81026 4.75524 1.39751 4.63907 1.02822 4.43282V4.46563C1.02822 5.76094 1.94385 6.83438 3.16416 7.08126C2.93503 7.14077 2.69933 7.17122 2.4626 7.17188C2.28916 7.17188 2.1251 7.1547 1.95947 7.13126C2.29697 8.18751 3.27979 8.9547 4.4501 8.9797C3.53447 9.69688 2.3876 10.1188 1.14229 10.1188C0.918848 10.1188 0.712598 10.1109 0.498535 10.0859C1.67979 10.8438 3.08135 11.2813 4.59072 11.2813C9.49072 11.2813 12.172 7.22188 12.172 3.69844C12.172 3.58282 12.172 3.46719 12.1642 3.35157C12.6829 2.97188 13.1376 2.50157 13.5001 1.97344Z" fill="#717781"/>
</svg>
