<svg width="24" height="24" viewBox="0 0 24 24" fill="none" xmlns="http://www.w3.org/2000/svg">
<path d="M21.7499 5.96017C21.0327 6.26954 20.2522 6.4922 19.4483 6.57892C20.283 6.08306 20.908 5.2997 21.2062 4.37579C20.4229 4.8417 19.5649 5.16841 18.6702 5.34142C18.2963 4.94163 17.844 4.62315 17.3415 4.40581C16.8391 4.18847 16.2973 4.07693 15.7499 4.07813C13.5351 4.07813 11.7538 5.87345 11.7538 8.07657C11.7538 8.38595 11.7913 8.69532 11.8522 8.99298C8.53584 8.81954 5.57803 7.23517 3.61162 4.80938C3.25332 5.42137 3.06556 6.1182 3.06787 6.82735C3.06787 8.21485 3.77334 9.43829 4.84912 10.1578C4.21515 10.1329 3.59602 9.9586 3.04209 9.64923V9.69845C3.04209 11.6414 4.41553 13.2516 6.246 13.6219C5.90231 13.7112 5.54875 13.7568 5.19365 13.7578C4.9335 13.7578 4.6874 13.732 4.43896 13.6969C4.94521 15.2813 6.41943 16.432 8.1749 16.4695C6.80146 17.5453 5.08115 18.1781 3.21318 18.1781C2.87803 18.1781 2.56865 18.1664 2.24756 18.1289C4.01943 19.2656 6.12178 19.9219 8.38584 19.9219C15.7358 19.9219 19.7577 13.8328 19.7577 8.54767C19.7577 8.37423 19.7577 8.20079 19.746 8.02735C20.5241 7.45782 21.2062 6.75235 21.7499 5.96017Z" fill="#717781"/>
</svg>
